<?xml version="1.0" encoding="utf-8"?>
<!-- Generator: Adobe Illustrator 18.1.1, SVG Export Plug-In . SVG Version: 6.00 Build 0)  -->
<svg version="1.1" id="Layer_1" xmlns="http://www.w3.org/2000/svg" xmlns:xlink="http://www.w3.org/1999/xlink" x="0px" y="0px"
	 width="22px" height="22px" viewBox="0 0 22 22" enable-background="new 0 0 22 22" xml:space="preserve">
<path d="M11,1C5.5,1,1,5.5,1,11s4.5,10,10,10s10-4.5,10-10S16.5,1,11,1z M11,20.3c-5.1,0-9.3-4.2-9.3-9.3S5.9,1.7,11,1.7
	s9.3,4.2,9.3,9.3S16.1,20.3,11,20.3z"/>
<path d="M15.4,9.2c-0.2-0.2-0.4-0.4-0.7-0.5c-0.3-0.1-0.6-0.2-1-0.2c-0.3,0-0.6,0-0.8,0.1c-0.2,0.1-0.5,0.2-0.7,0.4
	c-0.2,0.1-0.4,0.3-0.6,0.5c-0.2,0.2-0.4,0.4-0.5,0.6c-0.2-0.2-0.4-0.4-0.6-0.6C10.3,9.3,10.1,9.1,9.9,9C9.6,8.8,9.4,8.7,9.2,8.6
	C8.9,8.5,8.6,8.5,8.3,8.5c-0.4,0-0.7,0.1-1,0.2C7.1,8.8,6.8,9,6.6,9.2C6.4,9.4,6.3,9.7,6.2,10C6.1,10.3,6,10.6,6,11
	c0,0.4,0.1,0.7,0.2,1c0.1,0.3,0.3,0.6,0.5,0.8c0.2,0.2,0.5,0.4,0.7,0.5c0.3,0.1,0.6,0.2,1,0.2c0.3,0,0.6,0,0.8-0.1
	c0.2-0.1,0.5-0.2,0.7-0.3c0.2-0.1,0.4-0.3,0.6-0.5c0.2-0.2,0.4-0.4,0.6-0.6c0.2,0.2,0.4,0.4,0.5,0.6c0.2,0.2,0.4,0.3,0.6,0.5
	c0.2,0.1,0.4,0.3,0.7,0.3c0.2,0.1,0.5,0.1,0.8,0.1c0.4,0,0.7-0.1,1-0.2c0.3-0.1,0.5-0.3,0.7-0.5c0.2-0.2,0.4-0.5,0.5-0.8
	c0.1-0.3,0.2-0.6,0.2-1c0-0.4-0.1-0.7-0.2-1C15.7,9.7,15.6,9.4,15.4,9.2L15.4,9.2z M9.8,11.4c-0.1,0.1-0.3,0.2-0.4,0.4
	C9.2,11.9,9.1,12,8.9,12c-0.2,0.1-0.3,0.1-0.5,0.1c-0.3,0-0.6-0.1-0.8-0.3c-0.2-0.2-0.3-0.5-0.3-0.8c0-0.3,0.1-0.6,0.3-0.8
	C7.8,10,8,9.9,8.3,9.9c0.2,0,0.3,0,0.5,0.1C9,10,9.2,10.1,9.3,10.3c0.2,0.1,0.3,0.2,0.5,0.4c0.1,0.1,0.3,0.3,0.4,0.4
	C10.1,11.2,10,11.3,9.8,11.4L9.8,11.4z M14.4,11.8c-0.2,0.2-0.4,0.3-0.8,0.3c-0.2,0-0.4,0-0.5-0.1c-0.2-0.1-0.3-0.1-0.5-0.3
	c-0.2-0.1-0.3-0.2-0.4-0.4c-0.1-0.1-0.3-0.3-0.4-0.4c0.1-0.1,0.2-0.2,0.4-0.4c0.1-0.1,0.3-0.3,0.4-0.4c0.1-0.1,0.3-0.2,0.5-0.3
	c0.2-0.1,0.3-0.1,0.5-0.1c0.3,0,0.6,0.1,0.8,0.3c0.2,0.2,0.3,0.5,0.3,0.8C14.7,11.3,14.6,11.6,14.4,11.8L14.4,11.8z M14.4,11.8"/>
</svg>
