<?xml version="1.0" encoding="utf-8"?>
<!-- Generator: Adobe Illustrator 18.1.1, SVG Export Plug-In . SVG Version: 6.00 Build 0)  -->
<svg version="1.1" id="Layer_1" xmlns="http://www.w3.org/2000/svg" xmlns:xlink="http://www.w3.org/1999/xlink" x="0px" y="0px"
	 width="22px" height="22px" viewBox="0 0 22 22" enable-background="new 0 0 22 22" xml:space="preserve">
<path d="M11,1C5.5,1,1,5.5,1,11s4.5,10,10,10s10-4.5,10-10S16.5,1,11,1z M11,20.7c-5.3,0-9.7-4.3-9.7-9.7S5.7,1.3,11,1.3
	s9.7,4.3,9.7,9.7S16.3,20.7,11,20.7z"/>
<g>
	<g>
		<rect x="13.6" y="8.6" fill="#010101" width="0.3" height="4.4"/>
	</g>
	<g>
		<rect x="8.8" y="7.8" fill="#010101" width="4.4" height="0.3"/>
	</g>
	<g>
		<rect x="8.1" y="8.6" fill="#010101" width="0.3" height="4.4"/>
	</g>
	<g>
		<rect x="8.8" y="13.4" fill="#010101" width="4.4" height="0.3"/>
	</g>
	<g>
		<path fill="#010101" d="M8.8,8.7H7.6c-0.1,0-0.1-0.1-0.1-0.1V7.4c0-0.1,0.1-0.1,0.1-0.1h1.2c0.1,0,0.1,0.1,0.1,0.1v1.2
			C8.9,8.6,8.9,8.7,8.8,8.7z M7.8,8.4h0.9V7.5H7.8V8.4z"/>
	</g>
	<g>
		<path fill="#010101" d="M14.4,8.7h-1.2c-0.1,0-0.2-0.1-0.2-0.1V7.4c0-0.1,0.1-0.1,0.2-0.1h1.2c0.1,0,0.2,0.1,0.2,0.1v1.2
			C14.5,8.6,14.5,8.7,14.4,8.7z M13.4,8.4h0.9V7.5h-0.9V8.4z"/>
	</g>
	<g>
		<path fill="#010101" d="M8.8,14.3H7.6c-0.1,0-0.1-0.1-0.1-0.2V13c0-0.1,0.1-0.2,0.1-0.2h1.2c0.1,0,0.1,0.1,0.1,0.2v1.2
			C8.9,14.2,8.9,14.3,8.8,14.3z M7.8,14h0.9v-0.9H7.8V14z"/>
	</g>
	<g>
		<path fill="#010101" d="M14.4,14.3h-1.2c-0.1,0-0.2-0.1-0.2-0.2V13c0-0.1,0.1-0.2,0.2-0.2h1.2c0.1,0,0.2,0.1,0.2,0.2v1.2
			C14.5,14.2,14.5,14.3,14.4,14.3z M13.4,14h0.9v-0.9h-0.9V14z"/>
	</g>
</g>
</svg>
