<?xml version="1.0" encoding="utf-8"?>
<!-- Generator: Adobe Illustrator 18.1.1, SVG Export Plug-In . SVG Version: 6.00 Build 0)  -->
<svg version="1.1" id="Layer_1" xmlns="http://www.w3.org/2000/svg" xmlns:xlink="http://www.w3.org/1999/xlink" x="0px" y="0px"
	 width="22px" height="22px" viewBox="0 0 22 22" enable-background="new 0 0 22 22" xml:space="preserve">
<path d="M11,1C5.5,1,1,5.5,1,11s4.5,10,10,10s10-4.5,10-10S16.5,1,11,1z M11,20.7c-5.3,0-9.7-4.3-9.7-9.7S5.7,1.3,11,1.3
	s9.7,4.3,9.7,9.7S16.3,20.7,11,20.7z"/>
<g>
	<g>
		<polygon fill="#010101" points="10.5,11.9 9.9,12.5 9.4,11.9 9.2,12.1 9.7,12.7 9.2,13.3 9.4,13.5 9.9,12.9 10.5,13.5 10.7,13.3 
			10.2,12.7 10.7,12.1 		"/>
		<circle fill="#010101" cx="11" cy="7.4" r="0.2"/>
		<path fill="#010101" d="M12.4,13.2v-0.8L9.9,9.8h1V9.5H9.3V11h0.3v-1l2.5,2.5v0.7c-0.3,0.1-0.6,0.4-0.6,0.8c0,0.4,0.3,0.8,0.8,0.8
			c0.4,0,0.8-0.3,0.8-0.8C13,13.6,12.8,13.3,12.4,13.2z M12.3,14.4c-0.2,0-0.5-0.2-0.5-0.5s0.2-0.5,0.5-0.5s0.5,0.2,0.5,0.5
			S12.5,14.4,12.3,14.4z"/>
		<path fill="#010101" d="M13.3,7.9H13c0-0.3-0.3-0.6-0.6-0.6h-0.3c0-0.5-0.4-0.9-0.9-0.9h-0.3c-0.5,0-0.9,0.4-0.9,0.9H9.6
			C9.3,7.3,9,7.6,9,7.9H8.7c-0.3,0-0.6,0.3-0.6,0.6V15c0,0.3,0.3,0.6,0.6,0.6h4.6c0.3,0,0.6-0.3,0.6-0.6V8.5
			C14,8.2,13.7,7.9,13.3,7.9z M9.3,7.9c0-0.2,0.1-0.3,0.3-0.3h0.6V7.3c0-0.3,0.3-0.6,0.6-0.6h0.3c0.3,0,0.6,0.3,0.6,0.6v0.3h0.6
			c0.2,0,0.3,0.1,0.3,0.3v0.3c0,0.2-0.1,0.3-0.3,0.3H9.6c-0.2,0-0.3-0.1-0.3-0.3L9.3,7.9L9.3,7.9z M13.7,15c0,0.2-0.1,0.3-0.3,0.3
			H8.7c-0.2,0-0.3-0.1-0.3-0.3V8.5c0-0.2,0.1-0.3,0.3-0.3H9c0,0.3,0.3,0.6,0.6,0.6h2.8c0.3,0,0.6-0.3,0.6-0.6h0.3
			c0.2,0,0.3,0.1,0.3,0.3V15z"/>
		<polygon fill="#010101" points="13,9.5 12.4,10 11.9,9.5 11.6,9.7 12.2,10.2 11.6,10.8 11.9,11 12.4,10.4 13,11 13.2,10.8 
			12.6,10.2 13.2,9.7 		"/>
	</g>
</g>
</svg>
