<?xml version="1.0" encoding="utf-8"?>
<!-- Generator: Adobe Illustrator 18.1.1, SVG Export Plug-In . SVG Version: 6.00 Build 0)  -->
<svg version="1.1" id="Layer_1" xmlns="http://www.w3.org/2000/svg" xmlns:xlink="http://www.w3.org/1999/xlink" x="0px" y="0px"
	 width="22px" height="22px" viewBox="0 0 22 22" enable-background="new 0 0 22 22" xml:space="preserve">
<path d="M11,1C5.5,1,1,5.5,1,11s4.5,10,10,10s10-4.5,10-10S16.5,1,11,1z M11,20.7c-5.3,0-9.7-4.3-9.7-9.7S5.7,1.3,11,1.3
	s9.7,4.3,9.7,9.7S16.3,20.7,11,20.7z"/>
<path fill="#87163C" d="M15.2,14c-0.2,0.2-0.4,0.3-0.7,0.3c-1.3,0-2.6,0-3.9,0c-1,0-2,0-3,0c-0.5,0-0.8-0.3-0.9-0.7c0,0,0,0,0,0
	c0-1.7,0-3.4,0-5.1c0,0,0,0,0,0C6.7,8.2,6.8,8,7,7.9c0.1-0.1,0.3-0.1,0.4-0.2c2.4,0,4.8,0,7.3,0c0,0,0,0,0,0c0.2,0,0.4,0.1,0.5,0.3
	c0.1,0.1,0.1,0.3,0.2,0.4c0,1.7,0,3.4,0,5.1C15.3,13.7,15.3,13.8,15.2,14z M6.9,13.4c0,0.1,0,0.2,0.1,0.3C7.1,13.9,7.3,14,7.6,14
	c0.5,0,1,0,1.4,0c1.8,0,3.6,0,5.5,0c0.4,0,0.6-0.2,0.6-0.6c0-1.3,0-2.5,0-3.8c0-0.1,0-0.1-0.1-0.1c-1.3,0-2.6,0-4,0
	c-1.3,0-2.7,0-4,0c-0.1,0-0.1,0-0.1,0.1C6.9,10.8,6.9,12.1,6.9,13.4z M15.1,8.6c0-0.4-0.3-0.6-0.6-0.6c-0.4,0-0.8,0-1.2,0
	c-1.1,0-2.2,0-3.4,0C9.1,8,8.4,8,7.6,8C7.2,8,7,8.2,6.9,8.5c0,0.2,0,0.4,0,0.5c0,0.1,0,0.1,0.1,0.1c1.3,0,2.7,0,4,0c0,0,0,0,0,0
	c0.8,0,1.5,0,2.3,0c0.6,0,1.1,0,1.7,0c0.1,0,0.1,0,0.1-0.1C15.1,8.9,15.1,8.8,15.1,8.6z M9.6,8.9c-0.2,0-0.3-0.1-0.3-0.3
	c0-0.2,0.1-0.3,0.3-0.3c0.2,0,0.3,0.1,0.3,0.3C9.8,8.7,9.7,8.9,9.6,8.9z M8.7,8.9c-0.2,0-0.3-0.1-0.3-0.3c0-0.1,0.1-0.3,0.3-0.3
	C8.8,8.3,9,8.4,9,8.6C9,8.7,8.8,8.9,8.7,8.9z M7.8,8.9c-0.2,0-0.3-0.1-0.3-0.3c0-0.2,0.1-0.3,0.3-0.3c0.2,0,0.3,0.1,0.3,0.3
	C8.1,8.7,8,8.9,7.8,8.9z M8.5,10.8c-0.1-0.1-0.1-0.2,0-0.3c0.1,0,0.1,0,0.2,0.1c0.2,0.2,0.4,0.4,0.6,0.6c0.1,0.1,0.1,0.1,0.2,0.2
	c0.1,0.1,0.1,0.2,0,0.2c-0.3,0.3-0.6,0.6-0.8,0.8c0,0-0.1,0-0.1,0c-0.1,0-0.2-0.1-0.1-0.2c0,0,0-0.1,0.1-0.1
	c0.2-0.2,0.4-0.4,0.7-0.6c0.1,0,0-0.1,0-0.1C8.9,11.3,8.7,11.1,8.5,10.8z M10.6,11.4c0.3,0,0.6,0,0.9,0c0,0,0,0,0,0
	c0.3,0,0.6,0,0.8,0c0.1,0,0.2,0.1,0.2,0.1c0,0.1-0.1,0.1-0.2,0.1c-0.6,0-1.1,0-1.7,0c-0.1,0-0.2-0.1-0.2-0.1
	C10.4,11.5,10.5,11.4,10.6,11.4z"/>
</svg>
