<?xml version="1.0" encoding="utf-8"?>
<!-- Generator: Adobe Illustrator 18.1.1, SVG Export Plug-In . SVG Version: 6.00 Build 0)  -->
<svg version="1.1" id="Layer_1" xmlns="http://www.w3.org/2000/svg" xmlns:xlink="http://www.w3.org/1999/xlink" x="0px" y="0px"
	 width="22px" height="22px" viewBox="0 0 22 22" enable-background="new 0 0 22 22" xml:space="preserve">
<path d="M11,1C5.5,1,1,5.5,1,11s4.5,10,10,10s10-4.5,10-10S16.5,1,11,1z M11,20.7c-5.3,0-9.7-4.3-9.7-9.7S5.7,1.3,11,1.3
	s9.7,4.3,9.7,9.7S16.3,20.7,11,20.7z"/>
<g>
	<g>
		<path fill="#020202" d="M15.2,8.6c0-0.5-0.1-0.9-0.2-1.4c0-0.1,0-0.2-0.1-0.4c0-0.1-0.2-0.2-0.3-0.2s-0.1,0-0.2,0.1
			c-0.7,0.2-1.3,0.6-1.9,0.9c-0.1,0.1-0.2,0.1-0.3,0.1c-0.2,0-0.5-0.1-0.7-0.1c-0.6,0-1.2,0-1.7,0.1c-0.1,0-0.2,0-0.3,0
			c-0.7-0.4-1.3-0.8-2.1-1c-0.1,0-0.2,0-0.3,0v0.1C7,7.1,6.9,7.4,6.9,7.7C6.8,8,6.7,8.4,6.8,8.7c0,0.2,0,0.4-0.2,0.5
			C6.2,9.8,6,10.4,6,11.1c0,0.6,0.1,1.1,0.2,1.7c0.3,0.8,0.8,1.5,1.5,1.9c0.6,0.3,1.3,0.5,2,0.5c0.6,0,1.3,0,1.9,0
			c0.6,0,1.3-0.1,1.9-0.3c0.6-0.2,1.1-0.5,1.6-1c0.6-0.7,0.8-1.6,0.8-2.5c0-0.7-0.1-1.4-0.5-1.9C15.3,9.2,15.2,9,15.2,8.6z M14,14
			c-0.3,0.2-0.6,0.3-1,0.4c-0.7,0.2-1.4,0.2-2,0.2c-0.7,0-1.4,0-2-0.2c-0.5-0.1-0.9-0.3-1.2-0.7C7.3,13,7.2,11.8,8,11.1
			c0.2-0.2,0.4-0.3,0.7-0.3s0.6-0.1,0.9-0.1c0.8,0,1.5,0,2.3,0.1c0.3,0,0.7-0.1,1-0.1s0.6,0.1,0.9,0.2c0.5,0.2,0.7,0.6,0.8,1.1
			C14.7,12.8,14.6,13.5,14,14z"/>
		<ellipse fill="#020202" cx="12.7" cy="12.5" rx="0.7" ry="1"/>
		<ellipse fill="#020202" cx="9.3" cy="12.5" rx="0.7" ry="1"/>
	</g>
</g>
</svg>
