<?xml version="1.0" encoding="utf-8"?>
<!-- Generator: Adobe Illustrator 18.1.1, SVG Export Plug-In . SVG Version: 6.00 Build 0)  -->
<svg version="1.1" id="Layer_1" xmlns="http://www.w3.org/2000/svg" xmlns:xlink="http://www.w3.org/1999/xlink" x="0px" y="0px"
	 width="22px" height="22px" viewBox="0 0 22 22" enable-background="new 0 0 22 22" xml:space="preserve">
<path d="M11,1C5.5,1,1,5.5,1,11s4.5,10,10,10s10-4.5,10-10S16.5,1,11,1z M11,20.7c-5.3,0-9.7-4.3-9.7-9.7S5.7,1.3,11,1.3
	s9.7,4.3,9.7,9.7S16.3,20.7,11,20.7z"/>
<g>
	<g>
		<path fill="#010101" d="M13.2,14.9H8.8H8.6c0,0,0.1-0.2,0.1-0.2h2.1v-0.6H7.2c-0.4,0-0.7-0.3-0.7-0.8V7.8c0-0.4,0.3-0.8,0.7-0.8
			h7.6c0.4,0,0.7,0.3,0.7,0.8v5.6c0,0.4-0.3,0.8-0.7,0.8h-3.6v0.6h2.1l0.2,0.2H13.2z M11,13.9h3.8c0.2,0,0.4-0.2,0.4-0.4V7.8
			c0-0.2-0.2-0.5-0.4-0.5H7.2C7,7.4,6.8,7.6,6.8,7.8v5.6c0,0.2,0.2,0.4,0.4,0.4H11z"/>
	</g>
	<g>
		<circle fill="#010101" cx="11" cy="13.3" r="0.3"/>
	</g>
	<g>
		<rect x="6.5" y="12.4" fill="#010101" width="9" height="0.3"/>
	</g>
	<path fill="#010101" d="M14.3,9.2H7.6c-0.1,0-0.1,0-0.1-0.1v-1c0-0.1,0-0.1,0.1-0.1h6.7c0.1,0,0.1,0,0.1,0.1v1
		C14.4,9.2,14.4,9.2,14.3,9.2z M7.7,9h6.5V8.2H7.7V9z"/>
	<path fill="#010101" d="M9.3,11.4H7.6c-0.1,0-0.1,0-0.1-0.1V9.8c0-0.1,0-0.1,0.1-0.1h1.7c0.1,0,0.1,0,0.1,0.1v1.5
		C9.4,11.3,9.4,11.4,9.3,11.4z M7.7,11.2h1.5V9.9H7.7V11.2z"/>
	<path fill="#010101" d="M14.3,11.4h-1.7c-0.1,0-0.1,0-0.1-0.1V9.8c0-0.1,0-0.1,0.1-0.1h1.7c0.1,0,0.1,0,0.1,0.1v1.5
		C14.4,11.3,14.4,11.4,14.3,11.4z M12.7,11.2h1.5V9.9h-1.5V11.2z"/>
	<path fill="#010101" d="M11.9,11.4h-1.7c-0.1,0-0.1,0-0.1-0.1V9.8c0-0.1,0-0.1,0.1-0.1h1.7c0.1,0,0.1,0,0.1,0.1v1.5
		C12,11.3,11.9,11.4,11.9,11.4z M10.2,11.2h1.5V9.9h-1.5V11.2z"/>
</g>
<path fill="#010101" d="M13.8,14.9H8.3c-0.1,0-0.2-0.1-0.2-0.2l0,0c0-0.1,0.1-0.2,0.2-0.2h5.5c0.1,0,0.2,0.1,0.2,0.2l0,0
	C13.9,14.9,13.9,14.9,13.8,14.9z"/>
</svg>
