<?xml version="1.0" encoding="utf-8"?>
<!-- Generator: Adobe Illustrator 18.1.1, SVG Export Plug-In . SVG Version: 6.00 Build 0)  -->
<svg version="1.1" id="Layer_1" xmlns="http://www.w3.org/2000/svg" xmlns:xlink="http://www.w3.org/1999/xlink" x="0px" y="0px"
	 width="22px" height="22px" viewBox="0 0 22 22" enable-background="new 0 0 22 22" xml:space="preserve">
<path d="M11,1C5.5,1,1,5.5,1,11s4.5,10,10,10s10-4.5,10-10S16.5,1,11,1z M11,20.7c-5.3,0-9.7-4.3-9.7-9.7S5.7,1.3,11,1.3
	s9.7,4.3,9.7,9.7S16.3,20.7,11,20.7z"/>
<g>
	<g>
		<path fill="#010101" d="M7,14.2h1.5v-6H7V14.2z M13,8.2c-1.3,0-1.9,1-2,1v-1H9.5v6H11v-3.5c0-0.1,0.3-1.2,1.5-1c0.6,0,1,0.9,1,1
			v3.5l1.5,0V10C15,9.4,14.7,8.2,13,8.2z M7.8,6.2C7.4,6.2,7,6.5,7,6.9c0,0.4,0.3,0.7,0.8,0.7c0.4,0,0.8-0.3,0.8-0.7
			C8.5,6.5,8.2,6.2,7.8,6.2z"/>
	</g>
</g>
</svg>
