<?xml version="1.0" encoding="utf-8"?>
<!-- Generator: Adobe Illustrator 18.1.1, SVG Export Plug-In . SVG Version: 6.00 Build 0)  -->
<svg version="1.1" id="Layer_1" xmlns="http://www.w3.org/2000/svg" xmlns:xlink="http://www.w3.org/1999/xlink" x="0px" y="0px"
	 width="22px" height="22px" viewBox="0 0 22 22" enable-background="new 0 0 22 22" xml:space="preserve">
<path d="M11,1C5.5,1,1,5.5,1,11s4.5,10,10,10s10-4.5,10-10S16.5,1,11,1z M11,20.7c-5.3,0-9.7-4.3-9.7-9.7S5.7,1.3,11,1.3
	s9.7,4.3,9.7,9.7S16.3,20.7,11,20.7z"/>
<g>
	<path d="M15.2,7.4H6.8C6.4,7.4,6.2,7.6,6.2,8v6c0,0.3,0.3,0.6,0.6,0.6h8.5c0.3,0,0.6-0.3,0.6-0.6V8C15.8,7.6,15.6,7.4,15.2,7.4
		L15.2,7.4z M6.8,8.7L9.2,11l-2.5,2.6V8.7z M7.2,14l2.5-2.6l1.3,1.2l1.3-1.2l2.5,2.6H7.2z M15.2,13.6l-2.4-2.6l2.4-2.2V13.6z
		 M15.2,8L15.2,8L11,11.8L6.8,8v0L15.2,8L15.2,8z M15.2,8"/>
</g>
</svg>
