<?xml version="1.0" encoding="utf-8"?>
<!-- Generator: Adobe Illustrator 18.1.1, SVG Export Plug-In . SVG Version: 6.00 Build 0)  -->
<svg version="1.1" id="Layer_1" xmlns="http://www.w3.org/2000/svg" xmlns:xlink="http://www.w3.org/1999/xlink" x="0px" y="0px"
	 width="22px" height="22px" viewBox="0 0 22 22" enable-background="new 0 0 22 22" xml:space="preserve">
<g display="none">
	<path display="inline" d="M16,8.2L16,8.2c0-0.2-0.1-0.4-0.2-0.5l0,0c0,0,0,0,0,0c0,0-0.1,0-0.1-0.1c0,0,0,0,0,0c0,0-0.1,0-0.1,0
		c0,0,0,0,0,0c0,0-0.1,0-0.1,0h0c0,0-0.1,0-0.1,0H6.7c-0.1,0-0.1,0-0.2,0c0,0,0,0,0,0c0,0-0.1,0-0.1,0c0,0,0,0,0,0c0,0-0.1,0-0.1,0
		l0,0c0,0-0.1,0-0.1,0.1l0,0C6.1,7.8,6,7.9,6,8.1v5.9c0,0.2,0.1,0.3,0.2,0.4c0.1,0.1,0.3,0.1,0.4,0.1h8.6c0,0,0.1,0,0.1,0h0
		c0,0,0.1,0,0.1,0h0c0.3-0.1,0.4-0.4,0.4-0.6L16,8.2C16,8.2,16,8.2,16,8.2L16,8.2z M15.2,8L11,12l-0.9-0.9L6.8,8L15.2,8L15.2,8z
		 M6.5,13.8V8.3l3.1,2.9L6.5,13.8z M10.9,14h-4l3-2.4l1,0.9c0,0,0.1,0.1,0.1,0.1h0.1c0,0,0.1,0,0.1-0.1l0.9-0.9l3,2.4L10.9,14
		L10.9,14z M15.5,13.8l-3.1-2.5l3.1-3V13.8z M15.5,13.8"/>
</g>
<path d="M11,1C5.5,1,1,5.5,1,11s4.5,10,10,10s10-4.5,10-10S16.5,1,11,1z M11,20.7c-5.3,0-9.7-4.3-9.7-9.7S5.7,1.3,11,1.3
	s9.7,4.3,9.7,9.7S16.3,20.7,11,20.7z"/>
<g display="none">
	<g display="inline">
		<path fill="#010101" d="M7,14.2h1.5v-6H7V14.2z M13,8.2c-1.3,0-1.9,1-2,1v-1H9.5v6H11v-3.5c0-0.1,0.3-1.2,1.5-1c0.6,0,1,0.9,1,1
			v3.5l1.5,0V10C15,9.4,14.7,8.2,13,8.2z M7.8,6.2C7.4,6.2,7,6.5,7,6.9c0,0.4,0.3,0.7,0.8,0.7c0.4,0,0.8-0.3,0.8-0.7
			C8.5,6.5,8.2,6.2,7.8,6.2z"/>
	</g>
</g>
<g display="none">
	<path display="inline" d="M15.2,7.4H6.8C6.4,7.4,6.2,7.6,6.2,8v6c0,0.3,0.3,0.6,0.6,0.6h8.5c0.3,0,0.6-0.3,0.6-0.6V8
		C15.8,7.6,15.6,7.4,15.2,7.4L15.2,7.4z M6.8,8.7L9.2,11l-2.5,2.6V8.7z M7.2,14l2.5-2.6l1.3,1.2l1.3-1.2l2.5,2.6H7.2z M15.2,13.6
		l-2.4-2.6l2.4-2.2V13.6z M15.2,8L15.2,8L11,11.8L6.8,8v0L15.2,8L15.2,8z M15.2,8"/>
</g>
<path display="none" d="M15.4,9.2c-0.2-0.2-0.4-0.4-0.7-0.5c-0.3-0.1-0.6-0.2-1-0.2c-0.3,0-0.6,0-0.8,0.1c-0.2,0.1-0.5,0.2-0.7,0.4
	c-0.2,0.1-0.4,0.3-0.6,0.5c-0.2,0.2-0.4,0.4-0.5,0.6c-0.2-0.2-0.4-0.4-0.6-0.6C10.3,9.3,10.1,9.1,9.9,9C9.6,8.8,9.4,8.7,9.2,8.6
	C8.9,8.5,8.6,8.5,8.3,8.5c-0.4,0-0.7,0.1-1,0.2C7.1,8.8,6.8,9,6.6,9.2C6.4,9.4,6.3,9.7,6.2,10C6.1,10.3,6,10.6,6,11
	c0,0.4,0.1,0.7,0.2,1c0.1,0.3,0.3,0.6,0.5,0.8c0.2,0.2,0.5,0.4,0.7,0.5c0.3,0.1,0.6,0.2,1,0.2c0.3,0,0.6,0,0.8-0.1
	c0.2-0.1,0.5-0.2,0.7-0.3c0.2-0.1,0.4-0.3,0.6-0.5c0.2-0.2,0.4-0.4,0.6-0.6c0.2,0.2,0.4,0.4,0.5,0.6c0.2,0.2,0.4,0.3,0.6,0.5
	c0.2,0.1,0.4,0.3,0.7,0.3c0.2,0.1,0.5,0.1,0.8,0.1c0.4,0,0.7-0.1,1-0.2c0.3-0.1,0.5-0.3,0.7-0.5c0.2-0.2,0.4-0.5,0.5-0.8
	c0.1-0.3,0.2-0.6,0.2-1c0-0.4-0.1-0.7-0.2-1C15.7,9.7,15.6,9.4,15.4,9.2L15.4,9.2z M9.8,11.4c-0.1,0.1-0.3,0.2-0.4,0.4
	C9.2,11.9,9.1,12,8.9,12c-0.2,0.1-0.3,0.1-0.5,0.1c-0.3,0-0.6-0.1-0.8-0.3c-0.2-0.2-0.3-0.5-0.3-0.8c0-0.3,0.1-0.6,0.3-0.8
	C7.8,10,8,9.9,8.3,9.9c0.2,0,0.3,0,0.5,0.1C9,10,9.2,10.1,9.3,10.3c0.2,0.1,0.3,0.2,0.5,0.4c0.1,0.1,0.3,0.3,0.4,0.4
	C10.1,11.2,10,11.3,9.8,11.4L9.8,11.4z M14.4,11.8c-0.2,0.2-0.4,0.3-0.8,0.3c-0.2,0-0.4,0-0.5-0.1c-0.2-0.1-0.3-0.1-0.5-0.3
	c-0.2-0.1-0.3-0.2-0.4-0.4c-0.1-0.1-0.3-0.3-0.4-0.4c0.1-0.1,0.2-0.2,0.4-0.4c0.1-0.1,0.3-0.3,0.4-0.4c0.1-0.1,0.3-0.2,0.5-0.3
	c0.2-0.1,0.3-0.1,0.5-0.1c0.3,0,0.6,0.1,0.8,0.3c0.2,0.2,0.3,0.5,0.3,0.8C14.7,11.3,14.6,11.6,14.4,11.8L14.4,11.8z M14.4,11.8"/>
<g display="none">
	<path display="inline" d="M7.4,9.4v5.1c0,0.8,0.5,1.5,1.2,1.5h4.2c0.7,0,1.2-0.7,1.2-1.5V9.4H7.4z M13.6,14.3
		c0,0.8-0.3,1.3-1.1,1.3H8.8c-0.7,0-1.1-0.4-1.1-1.3V9.9h5.8V14.3z"/>
	<path display="inline" d="M14.2,10.4c-0.2,0-0.2,0-0.4,0.1l0,0.5c0.2-0.1,0.1-0.1,0.4-0.1c0.7,0,1.2,0.5,1.2,1.2
		c0,0.7-0.5,1.2-1.2,1.2c-0.2,0-0.2-0.1-0.4-0.2v0.6c0.2,0.1,0.2,0.1,0.4,0.1c0.9,0,1.7-0.7,1.7-1.7S15.1,10.4,14.2,10.4z"/>
	<path display="inline" d="M8.5,7.4l-1.7-1l0.3,2l0.7,1.4l2,0L8.5,7.4z M7.2,7l0.8,0.6L7.5,8L7.2,7z M7.6,8.4l0.7-0.5l1,1.7H8.2
		L7.6,8.4z"/>
	<path display="inline" d="M15,6c0,0-0.3-1.2-2-1.4c0,0,0.8,0.7,0.3,1.2s-0.7,0.9-0.2,1.7l-1.1,2l1.4,0l0.7-1.7
		C14.2,7.8,15.4,7.7,15,6z M13.1,9.6h-0.6l1-1.9l0.3,0.1L13.1,9.6z M13.8,7.4c0,0-0.7-0.2-0.4-0.9c0,0,0.7-0.7,0.4-1.2
		c0,0,0.8,0.4,0.8,1.3C14.7,6.5,14.6,7.7,13.8,7.4z"/>
	<path display="inline" d="M9.7,4.7v4.9h2.3V4.7H9.7z M10.1,9.5V5.1h1.6v0.6h-0.8v0.4h0.8v0.6h-0.4v0.4h0.4v0.6h-0.8v0.4h0.8v0.6
		h-0.4v0.4h0.4v0.4H10.1z"/>
</g>
<path d="M12.2,5.3c0.1,0.1,0.1,0.2,0.1,0.3c0,1.2,0,2.5,0,3.7c0,0,0,0.1,0,0.1c0.1-0.2,0.2-0.4,0.3-0.6c0.2-0.3,0.4-0.7,0.6-1
	c0,0,0-0.1,0-0.1c-0.3-0.3-0.3-0.8,0-1.1c0.1-0.1,0.2-0.2,0.3-0.4c0.1-0.2,0.1-0.4,0-0.6c-0.1-0.1-0.1-0.2,0-0.2
	c0.1-0.1,0.2-0.1,0.2,0c0.6,0.2,1,0.6,1.1,1.3c0.1,0.3,0,0.7-0.2,1C14.5,7.8,14.4,8,14.1,8c-0.1,0-0.1,0-0.1,0.1
	c-0.2,0.5-0.4,1-0.6,1.5c0,0.1,0,0.1,0,0.1c0.1,0,0.2,0.1,0.2,0.2c0,0.1,0,0.2,0,0.4c0,0.1,0,0.1,0.1,0.1c0.2,0,0.4,0,0.6,0
	c0.6,0.1,1,0.6,1,1.2c0.1,0.6-0.3,1.2-0.9,1.4C14.2,13,14,13,13.8,13c-0.1,0-0.1,0-0.1,0.1c0,0.4,0,0.8,0,1.2c0,0.6-0.4,1-1,1
	c-1.2,0-2.5,0-3.7,0c-0.6,0-1-0.4-1-1c0-1.5,0-2.9,0-4.4c0-0.1,0-0.2,0.2-0.2C8,9.4,7.9,9.2,7.7,8.9C7.6,8.7,7.5,8.4,7.5,8.1
	c0-0.3-0.1-0.5-0.1-0.8c0-0.1,0-0.1,0-0.2C7.4,7,7.5,7,7.7,7C8,7.2,8.3,7.4,8.6,7.6C8.8,7.7,8.9,7.8,9,8c0.3,0.5,0.5,1.1,0.8,1.6
	c0,0,0,0,0,0c0,0,0,0,0.1,0c0,0,0,0,0-0.1c0-0.3,0-0.6,0-0.9c0-1.1,0-2.1,0-3.2c0-0.1,0-0.2,0.1-0.2C10.8,5.3,11.5,5.3,12.2,5.3z
	 M10.8,10C10.8,10,10.8,10,10.8,10c-0.8,0-1.6,0-2.4,0c-0.1,0-0.1,0-0.1,0.1c0,0.6,0,1.3,0,1.9c0,0.7,0,1.5,0,2.2
	c0,0.4,0.3,0.7,0.7,0.7c1.2,0,2.4,0,3.7,0c0.5,0,0.7-0.3,0.7-0.7c0-1.4,0-2.8,0-4.2c0-0.1,0-0.1-0.1-0.1C12.4,10,11.6,10,10.8,10z
	 M10.3,7.7C10.3,7.7,10.3,7.7,10.3,7.7c0,0.6,0,1.3,0,1.9c0,0,0,0.1,0.1,0.1c0.5,0,1,0,1.6,0c0.1,0,0.1,0,0.1-0.1c0-0.2,0-0.4,0-0.5
	C12,9,11.9,9,11.9,9c-0.1,0-0.3,0-0.4,0c-0.1,0-0.2-0.1-0.2-0.2c0-0.1,0.1-0.2,0.2-0.2c0.1,0,0.3,0,0.4,0c0.1,0,0.1,0,0.1-0.1
	c0-0.2,0-0.3,0-0.5C12,8,12,8,11.9,8c-0.2,0-0.5,0-0.7,0C11,8,11,7.9,11,7.8c0-0.1,0.1-0.2,0.2-0.2c0.2,0,0.4,0,0.6,0
	c0.3,0,0.3,0,0.3-0.3c0-0.1,0-0.1-0.1-0.1c-0.1,0-0.3,0-0.4,0c-0.1,0-0.2-0.1-0.2-0.2c0-0.1,0.1-0.2,0.2-0.2c0.1,0,0.2,0,0.2,0
	C12,7,12,7,12,6.8c0-0.1,0-0.1-0.1-0.1c-0.2,0-0.5,0-0.7,0c0,0-0.1,0-0.1,0c-0.1,0-0.1-0.1-0.1-0.2c0-0.1,0.1-0.1,0.2-0.1
	c0.2,0,0.5,0,0.7,0c0.1,0,0.1,0,0.1-0.1c0-0.2,0-0.3,0-0.5c0-0.1,0-0.1-0.1-0.1c-0.5,0-1,0-1.5,0c-0.1,0-0.1,0-0.1,0.1
	C10.3,6.4,10.3,7,10.3,7.7z M13.7,11.7C13.7,11.7,13.7,11.7,13.7,11.7c0,0.3,0,0.6,0,0.9c0,0.1,0,0.1,0.1,0.1c0.1,0,0.1,0,0.2,0
	c0.6,0,1-0.3,1-0.9c0.1-0.5-0.2-1-0.8-1.1c-0.2,0-0.3,0-0.5,0c-0.1,0-0.1,0-0.1,0.1C13.7,11.1,13.7,11.4,13.7,11.7z M13.9,5.8
	C13.9,5.9,13.9,5.9,13.9,5.8c0,0.3-0.1,0.5-0.2,0.6c-0.1,0.1-0.2,0.2-0.3,0.4c-0.3,0.4-0.1,0.8,0.4,0.9c0.2,0,0.4,0,0.5-0.3
	c0.2-0.3,0.2-0.7,0-1.1C14.3,6.2,14.2,6,13.9,5.8z M9,9.7C9,9.7,9,9.7,9,9.7c0.1,0,0.3,0,0.4,0c0.1,0,0.1,0,0.1-0.1
	c-0.3-0.5-0.5-1-0.7-1.5c0-0.1,0-0.1-0.1,0C8.4,8.3,8.2,8.4,8,8.5c-0.1,0-0.1,0.1,0,0.1c0.2,0.3,0.3,0.6,0.5,1
	c0,0.1,0.1,0.1,0.1,0.1C8.7,9.7,8.9,9.7,9,9.7z M12.6,9.7c0.1,0,0.2,0,0.4,0c0.1,0,0.1,0,0.1-0.1c0.2-0.5,0.4-1,0.6-1.5
	c0,0,0.1-0.1,0-0.1c-0.1,0-0.1-0.1-0.2,0c-0.3,0.5-0.6,1-0.9,1.5C12.6,9.6,12.6,9.6,12.6,9.7z M8.4,7.8C8.2,7.7,8,7.6,7.8,7.5
	c0,0.2,0.1,0.4,0.1,0.7c0,0,0,0.1,0.1,0C8.1,8.1,8.2,8,8.4,7.8z"/>
<path display="none" fill="#87163C" d="M15.2,14c-0.2,0.2-0.4,0.3-0.7,0.3c-1.3,0-2.6,0-3.9,0c-1,0-2,0-3,0c-0.5,0-0.8-0.3-0.9-0.7
	c0,0,0,0,0,0c0-1.7,0-3.4,0-5.1c0,0,0,0,0,0C6.7,8.2,6.8,8,7,7.9c0.1-0.1,0.3-0.1,0.4-0.2c2.4,0,4.8,0,7.3,0c0,0,0,0,0,0
	c0.2,0,0.4,0.1,0.5,0.3c0.1,0.1,0.1,0.3,0.2,0.4c0,1.7,0,3.4,0,5.1C15.3,13.7,15.3,13.8,15.2,14z M6.9,13.4c0,0.1,0,0.2,0.1,0.3
	C7.1,13.9,7.3,14,7.6,14c0.5,0,1,0,1.4,0c1.8,0,3.6,0,5.5,0c0.4,0,0.6-0.2,0.6-0.6c0-1.3,0-2.5,0-3.8c0-0.1,0-0.1-0.1-0.1
	c-1.3,0-2.6,0-4,0c-1.3,0-2.7,0-4,0c-0.1,0-0.1,0-0.1,0.1C6.9,10.8,6.9,12.1,6.9,13.4z M15.1,8.6c0-0.4-0.3-0.6-0.6-0.6
	c-0.4,0-0.8,0-1.2,0c-1.1,0-2.2,0-3.4,0C9.1,8,8.4,8,7.6,8C7.2,8,7,8.2,6.9,8.5c0,0.2,0,0.4,0,0.5c0,0.1,0,0.1,0.1,0.1
	c1.3,0,2.7,0,4,0c0,0,0,0,0,0c0.8,0,1.5,0,2.3,0c0.6,0,1.1,0,1.7,0c0.1,0,0.1,0,0.1-0.1C15.1,8.9,15.1,8.8,15.1,8.6z M9.6,8.9
	c-0.2,0-0.3-0.1-0.3-0.3c0-0.2,0.1-0.3,0.3-0.3c0.2,0,0.3,0.1,0.3,0.3C9.8,8.7,9.7,8.9,9.6,8.9z M8.7,8.9c-0.2,0-0.3-0.1-0.3-0.3
	c0-0.1,0.1-0.3,0.3-0.3C8.8,8.3,9,8.4,9,8.6C9,8.7,8.8,8.9,8.7,8.9z M7.8,8.9c-0.2,0-0.3-0.1-0.3-0.3c0-0.2,0.1-0.3,0.3-0.3
	c0.2,0,0.3,0.1,0.3,0.3C8.1,8.7,8,8.9,7.8,8.9z M8.5,10.8c-0.1-0.1-0.1-0.2,0-0.3c0.1,0,0.1,0,0.2,0.1c0.2,0.2,0.4,0.4,0.6,0.6
	c0.1,0.1,0.1,0.1,0.2,0.2c0.1,0.1,0.1,0.2,0,0.2c-0.3,0.3-0.6,0.6-0.8,0.8c0,0-0.1,0-0.1,0c-0.1,0-0.2-0.1-0.1-0.2
	c0,0,0-0.1,0.1-0.1c0.2-0.2,0.4-0.4,0.7-0.6c0.1,0,0-0.1,0-0.1C8.9,11.3,8.7,11.1,8.5,10.8z M10.6,11.4c0.3,0,0.6,0,0.9,0
	c0,0,0,0,0,0c0.3,0,0.6,0,0.8,0c0.1,0,0.2,0.1,0.2,0.1c0,0.1-0.1,0.1-0.2,0.1c-0.6,0-1.1,0-1.7,0c-0.1,0-0.2-0.1-0.2-0.1
	C10.4,11.5,10.5,11.4,10.6,11.4z"/>
<g display="none">
	<g display="inline">
		<path fill="#010101" d="M13.2,14.9H8.8H8.6c0,0,0.1-0.2,0.1-0.2h2.1v-0.6H7.2c-0.4,0-0.7-0.3-0.7-0.8V7.8c0-0.4,0.3-0.8,0.7-0.8
			h7.6c0.4,0,0.7,0.3,0.7,0.8v5.6c0,0.4-0.3,0.8-0.7,0.8h-3.6v0.6h2.1l0.2,0.2H13.2z M11,13.9h3.8c0.2,0,0.4-0.2,0.4-0.4V7.8
			c0-0.2-0.2-0.5-0.4-0.5H7.2C7,7.4,6.8,7.6,6.8,7.8v5.6c0,0.2,0.2,0.4,0.4,0.4H11z"/>
	</g>
	<g display="inline">
		<circle fill="#010101" cx="11" cy="13.3" r="0.3"/>
	</g>
	<g display="inline">
		<rect x="6.5" y="12.4" fill="#010101" width="9" height="0.3"/>
	</g>
	<path display="inline" fill="#010101" d="M14.3,9.2H7.6c-0.1,0-0.1,0-0.1-0.1v-1c0-0.1,0-0.1,0.1-0.1h6.7c0.1,0,0.1,0,0.1,0.1v1
		C14.4,9.2,14.4,9.2,14.3,9.2z M7.7,9h6.5V8.2H7.7V9z"/>
	<path display="inline" fill="#010101" d="M9.3,11.4H7.6c-0.1,0-0.1,0-0.1-0.1V9.8c0-0.1,0-0.1,0.1-0.1h1.7c0.1,0,0.1,0,0.1,0.1v1.5
		C9.4,11.3,9.4,11.4,9.3,11.4z M7.7,11.2h1.5V9.9H7.7V11.2z"/>
	<path display="inline" fill="#010101" d="M14.3,11.4h-1.7c-0.1,0-0.1,0-0.1-0.1V9.8c0-0.1,0-0.1,0.1-0.1h1.7c0.1,0,0.1,0,0.1,0.1
		v1.5C14.4,11.3,14.4,11.4,14.3,11.4z M12.7,11.2h1.5V9.9h-1.5V11.2z"/>
	<path display="inline" fill="#010101" d="M11.9,11.4h-1.7c-0.1,0-0.1,0-0.1-0.1V9.8c0-0.1,0-0.1,0.1-0.1h1.7c0.1,0,0.1,0,0.1,0.1
		v1.5C12,11.3,11.9,11.4,11.9,11.4z M10.2,11.2h1.5V9.9h-1.5V11.2z"/>
	<path display="inline" fill="#010101" d="M13.8,14.9H8.3c-0.1,0-0.2-0.1-0.2-0.2l0,0c0-0.1,0.1-0.2,0.2-0.2h5.5
		c0.1,0,0.2,0.1,0.2,0.2l0,0C13.9,14.9,13.9,14.9,13.8,14.9z"/>
</g>
<path display="none" fill="#87163C" d="M15.2,14c-0.2,0.2-0.4,0.3-0.7,0.3c-1.3,0-2.6,0-3.9,0c-1,0-2,0-3,0c-0.5,0-0.8-0.3-0.9-0.7
	c0,0,0,0,0,0c0-1.7,0-3.4,0-5.1c0,0,0,0,0,0C6.7,8.2,6.8,8,7,7.9c0.1-0.1,0.3-0.1,0.4-0.2c2.4,0,4.8,0,7.3,0c0,0,0,0,0,0
	c0.2,0,0.4,0.1,0.5,0.3c0.1,0.1,0.1,0.3,0.2,0.4c0,1.7,0,3.4,0,5.1C15.3,13.7,15.3,13.8,15.2,14z M6.9,13.4c0,0.1,0,0.2,0.1,0.3
	C7.1,13.9,7.3,14,7.6,14c0.5,0,1,0,1.4,0c1.8,0,3.6,0,5.5,0c0.4,0,0.6-0.2,0.6-0.6c0-1.3,0-3.9,0-3.9l-8.2,0
	C6.9,9.5,6.9,12.1,6.9,13.4z M15.1,8.6c0-0.4-0.3-0.6-0.6-0.6c-0.4,0-0.8,0-1.2,0c-1.1,0-2.2,0-3.4,0C9.1,8,8.4,8,7.6,8
	C7.2,8,7,8.2,6.9,8.5c0,0.2,0,0.4,0,0.5c0,0.1,0,0.1,0.1,0.1c1.3,0,2.7,0,4,0c0,0,0,0,0,0c0.8,0,1.5,0,2.3,0c0.6,0,1.1,0,1.7,0
	c0.1,0,0.1,0,0.1-0.1C15.1,8.9,15.1,8.8,15.1,8.6z"/>
<path display="none" fill="none" stroke="#000000" stroke-width="0.23" stroke-miterlimit="10" d="M7.7,14.1h6.7
	c0.5,0,0.9-0.4,0.9-0.9V8.7c0-0.5-0.4-0.9-0.9-0.9H7.7c-0.5,0-0.9,0.4-0.9,0.9v4.5C6.8,13.7,7.2,14.1,7.7,14.1z"/>
<g display="none">
	<g display="inline">
		<path fill="#020202" d="M15.2,8.6c0-0.5-0.1-0.9-0.2-1.4c0-0.1,0-0.2-0.1-0.4c0-0.1-0.2-0.2-0.3-0.2s-0.1,0-0.2,0.1
			c-0.7,0.2-1.3,0.6-1.9,0.9c-0.1,0.1-0.2,0.1-0.3,0.1c-0.2,0-0.5-0.1-0.7-0.1c-0.6,0-1.2,0-1.7,0.1c-0.1,0-0.2,0-0.3,0
			c-0.7-0.4-1.3-0.8-2.1-1c-0.1,0-0.2,0-0.3,0v0.1C7,7.1,6.9,7.4,6.9,7.7C6.8,8,6.7,8.4,6.8,8.7c0,0.2,0,0.4-0.2,0.5
			C6.2,9.8,6,10.4,6,11.1c0,0.6,0.1,1.1,0.2,1.7c0.3,0.8,0.8,1.5,1.5,1.9c0.6,0.3,1.3,0.5,2,0.5c0.6,0,1.3,0,1.9,0
			c0.6,0,1.3-0.1,1.9-0.3c0.6-0.2,1.1-0.5,1.6-1c0.6-0.7,0.8-1.6,0.8-2.5c0-0.7-0.1-1.4-0.5-1.9C15.3,9.2,15.2,9,15.2,8.6z M14,14
			c-0.3,0.2-0.6,0.3-1,0.4c-0.7,0.2-1.4,0.2-2,0.2c-0.7,0-1.4,0-2-0.2c-0.5-0.1-0.9-0.3-1.2-0.7C7.3,13,7.2,11.8,8,11.1
			c0.2-0.2,0.4-0.3,0.7-0.3s0.6-0.1,0.9-0.1c0.8,0,1.5,0,2.3,0.1c0.3,0,0.7-0.1,1-0.1s0.6,0.1,0.9,0.2c0.5,0.2,0.7,0.6,0.8,1.1
			C14.7,12.8,14.6,13.5,14,14z"/>
		<ellipse fill="#020202" cx="12.7" cy="12.5" rx="0.7" ry="1"/>
		<ellipse fill="#020202" cx="9.3" cy="12.5" rx="0.7" ry="1"/>
	</g>
</g>
<g display="none">
	<g display="inline">
		<rect x="13.6" y="8.6" fill="#010101" width="0.3" height="4.4"/>
	</g>
	<g display="inline">
		<rect x="8.8" y="7.8" fill="#010101" width="4.4" height="0.3"/>
	</g>
	<g display="inline">
		<rect x="8.1" y="8.6" fill="#010101" width="0.3" height="4.4"/>
	</g>
	<g display="inline">
		<rect x="8.8" y="13.4" fill="#010101" width="4.4" height="0.3"/>
	</g>
	<g display="inline">
		<path fill="#010101" d="M8.8,8.7H7.6c-0.1,0-0.1-0.1-0.1-0.1V7.4c0-0.1,0.1-0.1,0.1-0.1h1.2c0.1,0,0.1,0.1,0.1,0.1v1.2
			C8.9,8.6,8.9,8.7,8.8,8.7z M7.8,8.4h0.9V7.5H7.8V8.4z"/>
	</g>
	<g display="inline">
		<path fill="#010101" d="M14.4,8.7h-1.2c-0.1,0-0.2-0.1-0.2-0.1V7.4c0-0.1,0.1-0.1,0.2-0.1h1.2c0.1,0,0.2,0.1,0.2,0.1v1.2
			C14.5,8.6,14.5,8.7,14.4,8.7z M13.4,8.4h0.9V7.5h-0.9V8.4z"/>
	</g>
	<g display="inline">
		<path fill="#010101" d="M8.8,14.3H7.6c-0.1,0-0.1-0.1-0.1-0.2V13c0-0.1,0.1-0.2,0.1-0.2h1.2c0.1,0,0.1,0.1,0.1,0.2v1.2
			C8.9,14.2,8.9,14.3,8.8,14.3z M7.8,14h0.9v-0.9H7.8V14z"/>
	</g>
	<g display="inline">
		<path fill="#010101" d="M14.4,14.3h-1.2c-0.1,0-0.2-0.1-0.2-0.2V13c0-0.1,0.1-0.2,0.2-0.2h1.2c0.1,0,0.2,0.1,0.2,0.2v1.2
			C14.5,14.2,14.5,14.3,14.4,14.3z M13.4,14h0.9v-0.9h-0.9V14z"/>
	</g>
</g>
<g display="none">
	<g display="inline">
		<path fill="#010101" d="M14,12.9H8c-0.1,0-0.1-0.1-0.1-0.2V8.8c0-0.1,0.1-0.1,0.1-0.1h0.4c0.1,0,0.1,0.1,0.1,0.1S8.4,8.9,8.3,8.9
			H8.1v3.6h5.7V12c0-0.1,0.1-0.1,0.2-0.1s0.2,0.1,0.2,0.1v0.7C14.2,12.8,14.1,12.9,14,12.9z"/>
	</g>
	<g display="inline">
		<path fill="#010101" d="M15.1,11.4H9c-0.1,0-0.1-0.1-0.1-0.1V7.4C8.9,7.3,9,7.2,9,7.2h6c0.1,0,0.2,0.1,0.2,0.1v3.9
			C15.2,11.4,15.2,11.4,15.1,11.4z M9.2,11.1h5.7V7.5H9.2V11.1z"/>
	</g>
	<g display="inline">
		<path fill="#010101" d="M13,14.3h-6c-0.1,0-0.1-0.1-0.1-0.2v-3.9c0-0.1,0.1-0.1,0.1-0.1h0.4c0.1,0,0.1,0.1,0.1,0.1
			s-0.1,0.1-0.1,0.1H7.1V14h5.7v-0.6c0-0.1,0.1-0.2,0.2-0.2s0.2,0.1,0.2,0.2v0.7C13.1,14.2,13,14.3,13,14.3z"/>
	</g>
</g>
<g display="none">
	<g display="inline">
		<polygon fill="#010101" points="10.5,11.9 9.9,12.5 9.4,11.9 9.2,12.1 9.7,12.7 9.2,13.3 9.4,13.5 9.9,12.9 10.5,13.5 10.7,13.3 
			10.2,12.7 10.7,12.1 		"/>
		<circle fill="#010101" cx="11" cy="7.4" r="0.2"/>
		<path fill="#010101" d="M12.4,13.2v-0.8L9.9,9.8h1V9.5H9.3V11h0.3v-1l2.5,2.5v0.7c-0.3,0.1-0.6,0.4-0.6,0.8c0,0.4,0.3,0.8,0.8,0.8
			c0.4,0,0.8-0.3,0.8-0.8C13,13.6,12.8,13.3,12.4,13.2z M12.3,14.4c-0.2,0-0.5-0.2-0.5-0.5s0.2-0.5,0.5-0.5s0.5,0.2,0.5,0.5
			S12.5,14.4,12.3,14.4z"/>
		<path fill="#010101" d="M13.3,7.9H13c0-0.3-0.3-0.6-0.6-0.6h-0.3c0-0.5-0.4-0.9-0.9-0.9h-0.3c-0.5,0-0.9,0.4-0.9,0.9H9.6
			C9.3,7.3,9,7.6,9,7.9H8.7c-0.3,0-0.6,0.3-0.6,0.6V15c0,0.3,0.3,0.6,0.6,0.6h4.6c0.3,0,0.6-0.3,0.6-0.6V8.5
			C14,8.2,13.7,7.9,13.3,7.9z M9.3,7.9c0-0.2,0.1-0.3,0.3-0.3h0.6V7.3c0-0.3,0.3-0.6,0.6-0.6h0.3c0.3,0,0.6,0.3,0.6,0.6v0.3h0.6
			c0.2,0,0.3,0.1,0.3,0.3v0.3c0,0.2-0.1,0.3-0.3,0.3H9.6c-0.2,0-0.3-0.1-0.3-0.3L9.3,7.9L9.3,7.9z M13.7,15c0,0.2-0.1,0.3-0.3,0.3
			H8.7c-0.2,0-0.3-0.1-0.3-0.3V8.5c0-0.2,0.1-0.3,0.3-0.3H9c0,0.3,0.3,0.6,0.6,0.6h2.8c0.3,0,0.6-0.3,0.6-0.6h0.3
			c0.2,0,0.3,0.1,0.3,0.3V15z"/>
		<polygon fill="#010101" points="13,9.5 12.4,10 11.9,9.5 11.6,9.7 12.2,10.2 11.6,10.8 11.9,11 12.4,10.4 13,11 13.2,10.8 
			12.6,10.2 13.2,9.7 		"/>
	</g>
</g>
</svg>
